<mxfile host="app.diagrams.net" modified="2024-05-10T13:38:21.281Z" agent="Mozilla/5.0 (Windows NT 10.0; Win64; x64) AppleWebKit/537.36 (KHTML, like Gecko) Chrome/124.0.0.0 Safari/537.36" etag="W8SunF1uxbxV0eK8FBlS" version="24.3.1" type="device">
  <diagram name="Page-1" id="3kXFqYmVT7MMXR0LpHMJ">
    <mxGraphModel dx="1235" dy="614" grid="1" gridSize="10" guides="1" tooltips="1" connect="1" arrows="1" fold="1" page="1" pageScale="1" pageWidth="827" pageHeight="1169" math="0" shadow="0">
      <root>
        <mxCell id="0" />
        <mxCell id="1" parent="0" />
        <mxCell id="W97IgWeE-2R9gTlGN-WU-3" style="edgeStyle=orthogonalEdgeStyle;rounded=0;orthogonalLoop=1;jettySize=auto;html=1;exitX=0.5;exitY=1;exitDx=0;exitDy=0;entryX=0.5;entryY=1;entryDx=0;entryDy=0;strokeWidth=2;" parent="1" source="AEikjFfa5bFPjAoqTP7F-1" target="AEikjFfa5bFPjAoqTP7F-2" edge="1">
          <mxGeometry relative="1" as="geometry" />
        </mxCell>
        <mxCell id="AEikjFfa5bFPjAoqTP7F-1" value="" style="ellipse;whiteSpace=wrap;html=1;strokeWidth=2;" parent="1" vertex="1">
          <mxGeometry x="511.25" y="1129" width="100" height="50" as="geometry" />
        </mxCell>
        <mxCell id="A568yXEnJSwXKWio94Mf-7" style="rounded=1;orthogonalLoop=1;jettySize=auto;html=1;exitX=0;exitY=0.5;exitDx=0;exitDy=0;entryX=0;entryY=0.5;entryDx=0;entryDy=0;curved=0;strokeWidth=2;" edge="1" parent="1" source="AEikjFfa5bFPjAoqTP7F-2" target="AEikjFfa5bFPjAoqTP7F-5">
          <mxGeometry relative="1" as="geometry">
            <Array as="points">
              <mxPoint x="670" y="1270" />
              <mxPoint x="730" y="1415" />
            </Array>
          </mxGeometry>
        </mxCell>
        <mxCell id="AEikjFfa5bFPjAoqTP7F-2" value="" style="rhombus;whiteSpace=wrap;html=1;direction=west;strokeWidth=2;" parent="1" vertex="1">
          <mxGeometry x="500" y="1230" width="122.5" height="80" as="geometry" />
        </mxCell>
        <mxCell id="A568yXEnJSwXKWio94Mf-5" style="rounded=1;orthogonalLoop=1;jettySize=auto;html=1;exitX=1;exitY=0.5;exitDx=0;exitDy=0;entryX=1;entryY=0.5;entryDx=0;entryDy=0;strokeWidth=2;" edge="1" parent="1" source="AEikjFfa5bFPjAoqTP7F-3" target="AEikjFfa5bFPjAoqTP7F-4">
          <mxGeometry relative="1" as="geometry">
            <Array as="points">
              <mxPoint x="730" y="1270" />
              <mxPoint x="680" y="1415" />
            </Array>
          </mxGeometry>
        </mxCell>
        <mxCell id="AEikjFfa5bFPjAoqTP7F-3" value="" style="rhombus;whiteSpace=wrap;html=1;direction=west;strokeWidth=2;" parent="1" vertex="1">
          <mxGeometry x="770" y="1230" width="122.5" height="80" as="geometry" />
        </mxCell>
        <mxCell id="A568yXEnJSwXKWio94Mf-2" style="edgeStyle=orthogonalEdgeStyle;rounded=1;orthogonalLoop=1;jettySize=auto;html=1;exitX=0;exitY=0.5;exitDx=0;exitDy=0;curved=0;strokeWidth=2;" edge="1" parent="1" source="AEikjFfa5bFPjAoqTP7F-4">
          <mxGeometry relative="1" as="geometry">
            <mxPoint x="560" y="1200" as="targetPoint" />
            <Array as="points">
              <mxPoint x="470" y="1420" />
              <mxPoint x="470" y="1200" />
            </Array>
          </mxGeometry>
        </mxCell>
        <mxCell id="AEikjFfa5bFPjAoqTP7F-4" value="" style="rounded=1;whiteSpace=wrap;html=1;strokeWidth=2;" parent="1" vertex="1">
          <mxGeometry x="510" y="1390" width="120" height="50" as="geometry" />
        </mxCell>
        <mxCell id="A568yXEnJSwXKWio94Mf-9" style="edgeStyle=orthogonalEdgeStyle;rounded=1;orthogonalLoop=1;jettySize=auto;html=1;exitX=1;exitY=0.5;exitDx=0;exitDy=0;entryX=0.5;entryY=1;entryDx=0;entryDy=0;curved=0;strokeWidth=2;" edge="1" parent="1" source="AEikjFfa5bFPjAoqTP7F-5" target="AEikjFfa5bFPjAoqTP7F-3">
          <mxGeometry relative="1" as="geometry">
            <Array as="points">
              <mxPoint x="920" y="1420" />
              <mxPoint x="920" y="1200" />
              <mxPoint x="831" y="1200" />
            </Array>
          </mxGeometry>
        </mxCell>
        <mxCell id="AEikjFfa5bFPjAoqTP7F-5" value="" style="rounded=1;whiteSpace=wrap;html=1;strokeWidth=2;" parent="1" vertex="1">
          <mxGeometry x="770" y="1390" width="120" height="50" as="geometry" />
        </mxCell>
        <mxCell id="AEikjFfa5bFPjAoqTP7F-10" value="" style="endArrow=classic;html=1;rounded=0;exitX=0.5;exitY=0;exitDx=0;exitDy=0;entryX=0.5;entryY=0;entryDx=0;entryDy=0;strokeWidth=2;" parent="1" source="AEikjFfa5bFPjAoqTP7F-3" target="AEikjFfa5bFPjAoqTP7F-5" edge="1">
          <mxGeometry width="50" height="50" relative="1" as="geometry">
            <mxPoint x="720" y="1310" as="sourcePoint" />
            <mxPoint x="770" y="1260" as="targetPoint" />
          </mxGeometry>
        </mxCell>
        <mxCell id="AEikjFfa5bFPjAoqTP7F-11" value="" style="endArrow=classic;html=1;rounded=0;exitX=0.5;exitY=0;exitDx=0;exitDy=0;entryX=0.423;entryY=0.027;entryDx=0;entryDy=0;entryPerimeter=0;strokeWidth=2;" parent="1" source="AEikjFfa5bFPjAoqTP7F-2" target="AEikjFfa5bFPjAoqTP7F-4" edge="1">
          <mxGeometry width="50" height="50" relative="1" as="geometry">
            <mxPoint x="720" y="1310" as="sourcePoint" />
            <mxPoint x="560" y="1400" as="targetPoint" />
          </mxGeometry>
        </mxCell>
        <mxCell id="AEikjFfa5bFPjAoqTP7F-19" value="&lt;font style=&quot;font-size: 18px;&quot;&gt;ARQ&lt;/font&gt;" style="text;html=1;align=center;verticalAlign=middle;whiteSpace=wrap;rounded=0;strokeWidth=2;" parent="1" vertex="1">
          <mxGeometry x="540" y="1400" width="60" height="30" as="geometry" />
        </mxCell>
        <mxCell id="AEikjFfa5bFPjAoqTP7F-20" value="&lt;font style=&quot;font-size: 18px;&quot;&gt;Start&lt;/font&gt;" style="text;html=1;align=center;verticalAlign=middle;whiteSpace=wrap;rounded=0;strokeWidth=2;" parent="1" vertex="1">
          <mxGeometry x="531.25" y="1139" width="60" height="30" as="geometry" />
        </mxCell>
        <mxCell id="AEikjFfa5bFPjAoqTP7F-21" value="&lt;font style=&quot;font-size: 18px;&quot;&gt;NAK &amp;gt; 1&lt;/font&gt;" style="text;html=1;align=center;verticalAlign=middle;whiteSpace=wrap;rounded=0;strokeWidth=2;" parent="1" vertex="1">
          <mxGeometry x="526.25" y="1255" width="70" height="30" as="geometry" />
        </mxCell>
        <mxCell id="AEikjFfa5bFPjAoqTP7F-22" value="&lt;font style=&quot;font-size: 18px;&quot;&gt;ACK &amp;gt; T&lt;/font&gt;" style="text;html=1;align=center;verticalAlign=middle;whiteSpace=wrap;rounded=0;strokeWidth=2;" parent="1" vertex="1">
          <mxGeometry x="798.75" y="1255" width="71.25" height="30" as="geometry" />
        </mxCell>
        <mxCell id="AEikjFfa5bFPjAoqTP7F-23" value="&lt;font style=&quot;font-size: 16px;&quot;&gt;Yes&lt;/font&gt;" style="text;html=1;align=center;verticalAlign=middle;whiteSpace=wrap;rounded=0;strokeWidth=2;" parent="1" vertex="1">
          <mxGeometry x="611.25" y="1240" width="60" height="30" as="geometry" />
        </mxCell>
        <mxCell id="AEikjFfa5bFPjAoqTP7F-24" value="&lt;font style=&quot;font-size: 18px;&quot;&gt;HARQ-1&lt;/font&gt;" style="text;html=1;align=center;verticalAlign=middle;whiteSpace=wrap;rounded=0;strokeWidth=2;" parent="1" vertex="1">
          <mxGeometry x="797.25" y="1400" width="72.75" height="30" as="geometry" />
        </mxCell>
        <mxCell id="AEikjFfa5bFPjAoqTP7F-25" value="&lt;font style=&quot;font-size: 16px;&quot;&gt;Yes&lt;/font&gt;" style="text;html=1;align=center;verticalAlign=middle;whiteSpace=wrap;rounded=0;strokeWidth=2;" parent="1" vertex="1">
          <mxGeometry x="720" y="1240" width="60" height="30" as="geometry" />
        </mxCell>
        <mxCell id="AEikjFfa5bFPjAoqTP7F-26" value="&lt;font style=&quot;font-size: 16px;&quot;&gt;No&lt;/font&gt;" style="text;html=1;align=center;verticalAlign=middle;whiteSpace=wrap;rounded=0;strokeWidth=2;" parent="1" vertex="1">
          <mxGeometry x="550" y="1330" width="60" height="30" as="geometry" />
        </mxCell>
        <mxCell id="AEikjFfa5bFPjAoqTP7F-27" value="&lt;font style=&quot;font-size: 16px;&quot;&gt;ACK+&lt;/font&gt;" style="text;html=1;align=center;verticalAlign=middle;whiteSpace=wrap;rounded=0;strokeWidth=2;" parent="1" vertex="1">
          <mxGeometry x="830" y="1330" width="60" height="30" as="geometry" />
        </mxCell>
        <mxCell id="AEikjFfa5bFPjAoqTP7F-28" value="&lt;font style=&quot;font-size: 16px;&quot;&gt;No&lt;/font&gt;" style="text;html=1;align=center;verticalAlign=middle;whiteSpace=wrap;rounded=0;strokeWidth=2;" parent="1" vertex="1">
          <mxGeometry x="780" y="1330" width="60" height="30" as="geometry" />
        </mxCell>
      </root>
    </mxGraphModel>
  </diagram>
</mxfile>
